<mxfile host="app.diagrams.net" modified="2023-04-03T03:11:06.941Z" agent="Mozilla/5.0 (Macintosh; Intel Mac OS X 10_15_7) AppleWebKit/537.36 (KHTML, like Gecko) Chrome/111.0.0.0 Safari/537.36" etag="DxKa0Roy9P3gHv7ZEHdj" version="21.1.2" type="device">
  <diagram name="Page-1" id="XPvu28oX4CKZqoI0heqm">
    <mxGraphModel dx="749" dy="429" grid="1" gridSize="10" guides="1" tooltips="1" connect="1" arrows="1" fold="1" page="1" pageScale="1" pageWidth="827" pageHeight="1169" math="0" shadow="0">
      <root>
        <mxCell id="0" />
        <mxCell id="1" parent="0" />
        <mxCell id="15UqM1Mxqr1R78UTp4el-4" value="&lt;b style=&quot;font-size: 13px; background-color: rgb(255, 255, 255);&quot;&gt;P (A, B : C)&amp;nbsp; &amp;nbsp;&lt;br&gt;&lt;br&gt;&lt;/b&gt;" style="ellipse;whiteSpace=wrap;html=1;aspect=fixed;verticalAlign=bottom;fillStyle=zigzag-line;fillColor=#CDA2BE;" vertex="1" parent="1">
          <mxGeometry x="250" y="80" width="190" height="190" as="geometry" />
        </mxCell>
        <mxCell id="15UqM1Mxqr1R78UTp4el-2" value="&lt;font style=&quot;font-size: 14px;&quot;&gt;&lt;b style=&quot;background-color: rgb(255, 255, 255);&quot;&gt;A = B&lt;/b&gt;&lt;/font&gt;" style="ellipse;whiteSpace=wrap;html=1;aspect=fixed;fillStyle=cross-hatch;fillColor=#3333FF;strokeColor=#000000;strokeWidth=2;" vertex="1" parent="1">
          <mxGeometry x="290" y="110" width="80" height="80" as="geometry" />
        </mxCell>
        <mxCell id="15UqM1Mxqr1R78UTp4el-3" value="&lt;font style=&quot;font-size: 14px;&quot;&gt;&lt;b style=&quot;background-color: rgb(255, 255, 255);&quot;&gt;A = C&lt;/b&gt;&lt;/font&gt;" style="ellipse;whiteSpace=wrap;html=1;aspect=fixed;fillColor=#009900;fillStyle=zigzag-line;strokeWidth=2;" vertex="1" parent="1">
          <mxGeometry x="330" y="150" width="80" height="80" as="geometry" />
        </mxCell>
        <mxCell id="15UqM1Mxqr1R78UTp4el-6" style="edgeStyle=orthogonalEdgeStyle;rounded=0;orthogonalLoop=1;jettySize=auto;html=1;entryX=0;entryY=0.375;entryDx=0;entryDy=0;entryPerimeter=0;strokeWidth=2;" edge="1" parent="1" source="15UqM1Mxqr1R78UTp4el-5" target="15UqM1Mxqr1R78UTp4el-2">
          <mxGeometry relative="1" as="geometry" />
        </mxCell>
        <mxCell id="15UqM1Mxqr1R78UTp4el-5" value="1,1,0&lt;br&gt;0,0,1" style="text;html=1;strokeColor=none;fillColor=none;align=center;verticalAlign=middle;whiteSpace=wrap;rounded=0;" vertex="1" parent="1">
          <mxGeometry x="161" y="125" width="60" height="30" as="geometry" />
        </mxCell>
        <mxCell id="15UqM1Mxqr1R78UTp4el-8" style="edgeStyle=orthogonalEdgeStyle;rounded=0;orthogonalLoop=1;jettySize=auto;html=1;entryX=0.25;entryY=0.25;entryDx=0;entryDy=0;entryPerimeter=0;" edge="1" parent="1" source="15UqM1Mxqr1R78UTp4el-7" target="15UqM1Mxqr1R78UTp4el-3">
          <mxGeometry relative="1" as="geometry" />
        </mxCell>
        <mxCell id="15UqM1Mxqr1R78UTp4el-7" value="1,1,1&lt;br&gt;0,0,0" style="text;html=1;strokeColor=none;fillColor=none;align=center;verticalAlign=middle;whiteSpace=wrap;rounded=0;" vertex="1" parent="1">
          <mxGeometry x="470" y="155" width="60" height="30" as="geometry" />
        </mxCell>
        <mxCell id="15UqM1Mxqr1R78UTp4el-10" style="edgeStyle=orthogonalEdgeStyle;rounded=0;orthogonalLoop=1;jettySize=auto;html=1;entryX=0.625;entryY=0.75;entryDx=0;entryDy=0;entryPerimeter=0;" edge="1" parent="1" source="15UqM1Mxqr1R78UTp4el-9" target="15UqM1Mxqr1R78UTp4el-3">
          <mxGeometry relative="1" as="geometry" />
        </mxCell>
        <mxCell id="15UqM1Mxqr1R78UTp4el-9" value="1,0,1&lt;br&gt;0,1,0" style="text;html=1;strokeColor=none;fillColor=none;align=center;verticalAlign=middle;whiteSpace=wrap;rounded=0;" vertex="1" parent="1">
          <mxGeometry x="460" y="195" width="60" height="30" as="geometry" />
        </mxCell>
        <mxCell id="15UqM1Mxqr1R78UTp4el-12" style="edgeStyle=orthogonalEdgeStyle;rounded=0;orthogonalLoop=1;jettySize=auto;html=1;entryX=0.211;entryY=0.789;entryDx=0;entryDy=0;entryPerimeter=0;" edge="1" parent="1" source="15UqM1Mxqr1R78UTp4el-11" target="15UqM1Mxqr1R78UTp4el-4">
          <mxGeometry relative="1" as="geometry" />
        </mxCell>
        <mxCell id="15UqM1Mxqr1R78UTp4el-11" value="1,0,0&lt;br&gt;0,1,1" style="text;html=1;strokeColor=none;fillColor=none;align=center;verticalAlign=middle;whiteSpace=wrap;rounded=0;" vertex="1" parent="1">
          <mxGeometry x="170" y="215" width="60" height="30" as="geometry" />
        </mxCell>
      </root>
    </mxGraphModel>
  </diagram>
</mxfile>
